
<svg width="435px" height="486px" viewBox="0 0 435 486" version="1.1" xmlns="http://www.w3.org/2000/svg" xmlns:xlink="http://www.w3.org/1999/xlink">
    <g id="Page-1" stroke="none" stroke-width="1" fill="none" fill-rule="evenodd">
        <g id="Artboard-Copy-7" transform="translate(-487.000000, -181.000000)">
            <path d="M641.741967,430.279665 L527.873881,496.021435 C523.531837,479.52321 524.13235,464.167015 529.675438,449.95239 C535.218525,435.737765 545.008853,424.578238 559.046715,416.473474 C572.760626,408.555744 586.852948,405.782641 601.324104,408.154081 C615.79526,410.525521 629.267746,417.900642 641.741967,430.279665 Z M543.547888,525.413995 C554.850994,538.757117 568.539744,546.943222 584.614548,549.972554 C600.689352,553.001887 616.123396,550.246008 630.917142,541.704834 C641.49953,535.595089 649.671848,527.493366 655.43434,517.39942 C661.196832,507.305474 663.988835,496.119113 663.810433,483.839999 L699.930751,462.985924 C703.133014,487.485083 700.388009,509.22654 691.695655,528.210946 C683.0033,547.195352 668.884823,562.32949 649.3398,573.613814 C636.165807,581.219822 622.785438,585.8495 609.198293,587.502985 C595.611148,589.15647 581.709653,587.896056 567.493389,583.721706 C554.128764,579.775552 541.746988,573.354444 530.347687,564.458191 C518.948387,555.561937 509.757592,545.066889 502.775027,532.972732 C495.543084,520.44664 490.911469,507.499318 488.880042,494.130378 C486.848614,480.761438 487.402969,467.195598 490.543123,453.432449 C493.786785,438.601694 499.551348,425.519154 507.836987,414.184436 C516.122625,402.849718 526.85228,393.379497 540.026274,385.773489 C555.683889,376.73356 572.338544,371.977178 589.990738,371.504198 C607.642933,371.031218 624.613942,374.802731 640.904274,382.81885 C650.763309,387.925089 659.724412,394.593412 667.787852,402.82402 C675.851291,411.054628 683.467696,421.378832 690.637294,433.79694 L693.536291,438.81815 L543.547888,525.413995 Z M766.003055,499.995238 L629.843713,264.16034 L661.590719,245.831198 L797.75006,481.666096 L766.003055,499.995238 Z M876.793625,436.030272 L844.884645,454.452931 L758.101768,304.140578 L736.883106,316.391178 L720.798349,288.531561 L741.045163,276.842057 L737.959134,271.496898 C727.422942,253.247678 724.564896,236.576838 729.384909,221.483877 C734.204922,206.390916 746.711204,193.015441 766.904128,181.357051 L784.017561,210.998387 L781.263995,212.58816 C771.761442,218.074461 766.205448,224.161734 764.595847,230.850161 C762.986245,237.538587 765.111596,245.957901 770.971963,256.108355 L772.46822,258.699947 L801.785607,241.773546 L817.870365,269.633163 L790.010748,285.71792 L876.793625,436.030272 Z" id="elf" fill="#D90368" transform="translate(682.238364, 384.781867) rotate(-360.000000) translate(-682.238364, -384.781867) "></path>
            <path d="M660.692927,575.626436 C660.692927,570.811959 658.963615,566.592437 655.504939,562.967745 C652.046263,559.343052 648.061927,557.530733 643.551814,557.530733 C638.654328,557.530733 634.483227,559.336135 631.038386,562.946993 C627.593545,566.557851 625.87115,571.03331 625.87115,576.373506 C625.87115,581.437008 627.57971,585.725702 630.996882,589.239717 C634.414054,592.753732 638.543651,594.510713 643.385798,594.510713 C648.034259,594.510713 652.080849,592.663808 655.525691,588.969942 C658.970532,585.276076 660.692927,580.828285 660.692927,575.626436 Z M660.692927,591.522432 C658.894415,594.123357 656.438792,596.177779 653.325984,597.685762 C650.213175,599.193745 646.844475,599.947725 643.219782,599.947725 C636.551455,599.947725 630.98307,597.658116 626.51446,593.078829 C622.045851,588.499541 619.811579,582.848149 619.811579,576.124483 C619.811579,569.317808 622.094271,563.611078 626.659724,559.004122 C631.225176,554.397165 636.911155,552.093721 643.717829,552.093721 C647.204175,552.093721 650.406861,552.806198 653.325984,554.231172 C656.245106,555.656147 658.70073,557.71057 660.692927,560.394502 L660.692927,553.089815 L666.420466,553.089815 L666.420466,598.744112 L660.692927,598.744112 L660.692927,591.522432 Z M700.269822,553.089815 L706.038865,553.089815 L706.038865,577.328096 C706.038865,583.553713 707.041866,587.960001 709.047898,590.54709 C711.05393,593.13418 714.381127,594.427706 719.029587,594.427706 C721.658181,594.427706 723.961625,593.901995 725.939988,592.850557 C727.918351,591.79912 729.530069,590.249656 730.775193,588.20212 C731.439259,587.012335 731.930383,585.594299 732.248581,583.947969 C732.56678,582.301639 732.725876,579.500154 732.725876,575.543428 L732.725876,553.089815 L738.577927,553.089815 L738.577927,598.744112 L732.725876,598.744112 L732.725876,593.805147 C731.010373,595.935692 729.045874,597.492072 726.832322,598.474336 C724.618769,599.4566 721.962546,599.947725 718.863572,599.947725 C712.305922,599.947725 707.567607,598.169992 704.648484,594.614473 C701.729361,591.058954 700.269822,585.158541 700.269822,576.913057 L700.269822,553.089815 Z M811.191931,576.373506 C811.191931,571.143988 809.469536,566.696197 806.024695,563.030001 C802.579854,559.363804 798.533263,557.530733 793.884802,557.530733 C789.070325,557.530733 784.947645,559.287714 781.516638,562.801729 C778.085632,566.315744 776.370154,570.590604 776.370154,575.626436 C776.370154,580.966632 778.092549,585.449009 781.53739,589.073702 C784.982232,592.698394 789.153333,594.510713 794.050818,594.510713 C798.560932,594.510713 802.545267,592.698394 806.003943,589.073702 C809.462619,585.449009 811.191931,581.215653 811.191931,576.373506 Z M811.025916,560.311495 L811.025916,538.314424 L816.91947,538.314424 L816.91947,598.744112 L811.025916,598.744112 L811.025916,591.854463 C808.978379,594.400049 806.432832,596.385299 803.389197,597.810274 C800.345562,599.235249 797.122124,599.947725 793.718787,599.947725 C787.188806,599.947725 781.655007,597.616612 777.117224,592.954317 C772.579441,588.292021 770.310584,582.599126 770.310584,575.87546 C770.310584,569.179462 772.537938,563.541905 776.992713,558.962618 C781.447487,554.38333 787.02279,552.093721 793.718787,552.093721 C797.260471,552.093721 800.511578,552.785446 803.472205,554.168917 C806.432832,555.552387 808.95071,557.599893 811.025916,560.311495 Z M856.8699,547.735811 L851.01785,547.735811 L851.01785,538.314424 L856.8699,538.314424 L856.8699,547.735811 Z M851.01785,598.744112 L851.01785,553.089815 L856.8699,553.089815 L856.8699,598.744112 L851.01785,598.744112 Z M894.745135,575.87546 C894.745135,581.104978 896.412192,585.504348 899.746356,589.073702 C903.080519,592.643055 907.25162,594.427706 912.259783,594.427706 C917.184938,594.427706 921.300701,592.649973 924.607195,589.094454 C927.91369,585.538935 929.566912,581.104978 929.566912,575.792452 C929.566912,570.396917 927.892938,565.962961 924.54494,562.49045 C921.196941,559.017939 916.922082,557.28171 911.720233,557.28171 C907.099441,557.28171 903.115106,559.06636 899.767108,562.635713 C896.419109,566.205067 894.745135,570.618272 894.745135,575.87546 Z M888.602557,575.958467 C888.602557,569.26247 890.899083,563.534989 895.492205,558.77585 C900.085327,554.016712 905.522285,551.637178 911.80324,551.637178 C918.38856,551.637178 924.0192,553.975208 928.69533,558.651338 C933.37146,563.327469 935.70949,568.902771 935.70949,575.377413 C935.70949,582.184087 933.426798,587.994576 928.861346,592.809053 C924.295893,597.62353 918.762095,600.030733 912.259783,600.030733 C905.646795,600.030733 900.05074,597.671951 895.471453,592.954317 C890.892166,588.236683 888.602557,582.571456 888.602557,575.958467 Z" id="audio" fill="#FFF7D0" transform="translate(777.760535, 569.172579) rotate(-30.000000) translate(-777.760535, -569.172579) "></path>
        </g>
    </g>
</svg>