<?xml version="1.0" encoding="UTF-8" standalone="no"?>
<!DOCTYPE svg PUBLIC "-//W3C//DTD SVG 1.1//EN" "http://www.w3.org/Graphics/SVG/1.1/DTD/svg11.dtd">
<svg width="100%" height="100%" viewBox="0 0 530 575" version="1.1" xmlns="http://www.w3.org/2000/svg" xmlns:xlink="http://www.w3.org/1999/xlink" xml:space="preserve" xmlns:serif="http://www.serif.com/" style="fill-rule:evenodd;clip-rule:evenodd;stroke-linejoin:round;stroke-miterlimit:2;">
    <g id="Artboard1" transform="matrix(0.986455,0,0,0.999907,-2.59927,0.109383)">
        <rect x="2.635" y="-0.109" width="537.094" height="574.197" style="fill:none;"/>
        <g transform="matrix(1.01373,0,0,1.00009,-258.194,-209.84)">
            <path d="M514.5,213.5C546.887,212.178 576.554,220.344 603.5,238C607.633,241.131 611.466,244.631 615,248.5C618.436,260.037 622.436,271.371 627,282.5C627.667,287.833 627.667,293.167 627,298.5C625.454,282.489 618.621,269.322 606.5,259C564.283,227.411 518.283,220.745 468.5,239C451.672,245.832 437.172,255.999 425,269.5C419.878,278.532 416.545,288.198 415,298.5C414.333,292.833 414.333,287.167 415,281.5C419.276,268.983 424.11,256.817 429.5,245C454.285,224.905 482.618,214.405 514.5,213.5Z" style="fill:rgb(192,192,192);"/>
        </g>
        <g transform="matrix(1.01373,0,0,1.00009,-258.194,-209.84)">
            <path d="M592.5,289.5C593.8,290.601 594.3,291.934 594,293.5C591.579,294.961 589.079,296.294 586.5,297.5C554.595,274.842 519.929,269.675 482.5,282C472.388,285.886 463.055,291.053 454.5,297.5C451.4,296.242 448.4,294.742 445.5,293C446.381,292.292 447.047,291.458 447.5,290.5C467.061,272.085 490.394,263.085 517.5,263.5C541.181,262.335 562.848,268.168 582.5,281C586,283.669 589.333,286.502 592.5,289.5Z" style="fill:rgb(250,250,250);"/>
        </g>
        <g transform="matrix(1.01373,0,0,1.00009,-258.194,-209.84)">
            <path d="M714.5,329.5C714.802,332.059 714.468,334.393 713.5,336.5C710.111,335.369 706.778,334.036 703.5,332.5C704.53,349.565 700.03,364.899 690,378.5C684.652,384.015 679.152,389.348 673.5,394.5C673.167,394.333 672.833,394.167 672.5,394C675.66,387.917 677.327,381.417 677.5,374.5C683.829,369.656 687.996,363.323 690,355.5C691.947,341.768 690.114,328.601 684.5,316C684.833,315.5 685.167,315 685.5,314.5C689.685,315.258 693.685,316.591 697.5,318.5C698.583,317.635 698.749,316.635 698,315.5C688.41,296.258 672.91,285.091 651.5,282C646.177,281.501 640.844,281.334 635.5,281.5C634.551,277.539 633.218,273.705 631.5,270C662.752,266.3 687.585,277.134 706,302.5C711.146,310.787 713.979,319.787 714.5,329.5Z" style="fill:rgb(249,249,249);"/>
        </g>
        <g transform="matrix(1.01373,0,0,1.00009,-258.194,-209.84)">
            <path d="M405.5,283.5C383.293,279.516 364.793,286.183 350,303.5C347.029,308.125 344.529,312.958 342.5,318C346.908,316.279 351.575,315.113 356.5,314.5C351.456,326.683 349.623,339.35 351,352.5C351.873,358.248 353.873,363.581 357,368.5C359.106,371.118 361.606,373.118 364.5,374.5C365.022,381.38 366.188,388.046 368,394.5C346.56,379.043 336.726,358.043 338.5,331.5C334.966,333.766 331.3,335.766 327.5,337.5C326.539,335.735 326.205,333.735 326.5,331.5C330.786,299.709 348.452,279.542 379.5,271C389.443,269.635 399.443,269.135 409.5,269.5C408.166,274.171 406.832,278.838 405.5,283.5Z" style="fill:rgb(249,249,249);"/>
        </g>
        <g transform="matrix(1.01373,0,0,1.00009,-258.194,-209.84)">
            <path d="M592.5,289.5C599.503,287.159 605.837,283.493 611.5,278.5C614.083,283.578 616.083,288.912 617.5,294.5C617.081,295.672 616.415,296.672 615.5,297.5C611.167,300.333 606.833,303.167 602.5,306C620.44,331.152 630.44,359.152 632.5,390C629.275,428.896 609.942,456.563 574.5,473C534.898,489.413 495.898,488.079 457.5,469C420.037,446.235 404.537,413.068 411,369.5C416.478,346.714 425.644,325.547 438.5,306C435.003,303.417 431.336,301.084 427.5,299C425.876,297.883 424.876,296.383 424.5,294.5C425.571,289.286 427.238,284.286 429.5,279.5C435.535,283.221 441.535,286.887 447.5,290.5C447.047,291.458 446.381,292.292 445.5,293C448.4,294.742 451.4,296.242 454.5,297.5C463.055,291.053 472.388,285.886 482.5,282C519.929,269.675 554.595,274.842 586.5,297.5C589.079,296.294 591.579,294.961 594,293.5C594.3,291.934 593.8,290.601 592.5,289.5Z" style="fill:rgb(199,199,199);"/>
        </g>
        <g transform="matrix(1.01373,0,0,1.00009,-258.194,-209.84)">
            <path d="M405.5,283.5L405.5,298.5C397.349,298.563 389.349,299.73 381.5,302C377.581,303.54 374.081,305.707 371,308.5C370.257,310.441 370.424,312.274 371.5,314C374.818,314.879 378.152,315.713 381.5,316.5C367.479,333.226 361.813,352.559 364.5,374.5C361.606,373.118 359.106,371.118 357,368.5C353.873,363.581 351.873,358.248 351,352.5C349.623,339.35 351.456,326.683 356.5,314.5C351.575,315.113 346.908,316.279 342.5,318C344.529,312.958 347.029,308.125 350,303.5C364.793,286.183 383.293,279.516 405.5,283.5Z" style="fill:rgb(199,199,199);"/>
        </g>
        <g transform="matrix(1.01373,0,0,1.00009,-258.194,-209.84)">
            <path d="M635.5,281.5C640.844,281.334 646.177,281.501 651.5,282C672.91,285.091 688.41,296.258 698,315.5C698.749,316.635 698.583,317.635 697.5,318.5C693.685,316.591 689.685,315.258 685.5,314.5C685.167,315 684.833,315.5 684.5,316C690.114,328.601 691.947,341.768 690,355.5C687.996,363.323 683.829,369.656 677.5,374.5C679.829,352.459 673.829,333.125 659.5,316.5C662.897,315.828 666.23,314.995 669.5,314C671.787,311.952 671.954,309.785 670,307.5C666.863,305.014 663.363,303.181 659.5,302C651.634,299.922 643.634,298.756 635.5,298.5L635.5,281.5Z" style="fill:rgb(198,198,198);"/>
        </g>
        <g transform="matrix(1.01373,0,0,1.00009,-258.194,-209.84)">
            <path d="M403.5,326.5C401.5,328.5 399.5,330.5 397.5,332.5C397.235,327.101 395.902,322.101 393.5,317.5C393.511,315.983 394.177,314.816 395.5,314C399.5,313.333 403.5,313.333 407.5,314C408.022,314.561 408.355,315.228 408.5,316C406.922,319.652 405.255,323.152 403.5,326.5Z" style="fill:rgb(201,201,201);"/>
        </g>
        <g transform="matrix(1.01373,0,0,1.00009,-258.194,-209.84)">
            <path d="M637.5,326.5C639.463,327.96 641.296,329.627 643,331.5C646.394,337.619 649.228,343.952 651.5,350.5C649.112,351.219 647.612,352.885 647,355.5C647.221,363.507 646.554,371.507 645,379.5C643.669,369.251 642.669,358.918 642,348.5C641.072,341.026 639.572,333.693 637.5,326.5Z" style="fill:rgb(119,119,119);"/>
        </g>
        <g transform="matrix(1.01373,0,0,1.00009,-258.194,-209.84)">
            <path d="M393.5,317.5C395.902,322.101 397.235,327.101 397.5,332.5C394.059,338.485 391.392,344.819 389.5,351.5C389.013,352.473 388.513,353.473 388,354.5C387.242,364.534 387.409,374.534 388.5,384.5L388.5,389.5C389.978,389.238 391.311,389.571 392.5,390.5C393.942,393.05 395.108,395.716 396,398.5C396.671,399.252 397.504,399.586 398.5,399.5C398.894,404.031 399.561,408.531 400.5,413C400.167,413.833 399.833,414.667 399.5,415.5C390.803,411.637 384.637,405.303 381,396.5C373.17,374.572 373.837,352.905 383,331.5C385.791,326.228 389.291,321.562 393.5,317.5Z" style="fill:rgb(237,237,237);"/>
        </g>
        <g transform="matrix(1.01373,0,0,1.00009,-258.194,-209.84)">
            <path d="M403.5,326.5C399.838,343.624 397.671,360.957 397,378.5C396.586,378.957 396.086,379.291 395.5,379.5C393.504,371.226 393.004,362.893 394,354.5C392.871,352.859 391.371,351.859 389.5,351.5C391.392,344.819 394.059,338.485 397.5,332.5C399.5,330.5 401.5,328.5 403.5,326.5Z" style="fill:rgb(121,121,121);"/>
        </g>
        <g transform="matrix(1.01373,0,0,1.00009,-258.194,-209.84)">
            <path d="M326.5,331.5C326.205,333.735 326.539,335.735 327.5,337.5C327.44,338.043 327.107,338.376 326.5,338.5C325.203,336.027 325.203,333.693 326.5,331.5Z" style="fill:rgb(124,124,124);"/>
        </g>
        <g transform="matrix(1.01373,0,0,1.00009,-258.194,-209.84)">
            <path d="M714.5,329.5C715.8,332.024 715.8,334.691 714.5,337.5C713.893,337.376 713.56,337.043 713.5,336.5C714.468,334.393 714.802,332.059 714.5,329.5Z" style="fill:rgb(167,167,167);"/>
        </g>
        <g transform="matrix(1.01373,0,0,1.00009,-258.194,-209.84)">
            <path d="M642.5,400.5C644.329,396.303 646.329,392.303 648.5,388.5C649.822,388.67 650.989,388.337 652,387.5C654.253,377.947 654.92,368.28 654,358.5C653.721,355.543 652.887,352.877 651.5,350.5C649.228,343.952 646.394,337.619 643,331.5C641.296,329.627 639.463,327.96 637.5,326.5C635.243,322.395 633.576,318.061 632.5,313.5C636.535,312.633 640.535,312.633 644.5,313.5C657.29,326.086 664.457,341.42 666,359.5C667.874,375.196 664.874,389.863 657,403.5C652.833,408.839 647.666,412.839 641.5,415.5C641.167,414.833 640.833,414.167 640.5,413.5C641.493,409.209 642.16,404.876 642.5,400.5Z" style="fill:rgb(232,232,232);"/>
        </g>
        <g transform="matrix(1.01373,0,0,1.00009,-258.194,-209.84)">
            <path d="M456.5,372.5C463.016,372.011 468.183,374.344 472,379.5C473.996,391.836 468.829,397.336 456.5,396C450.068,392.301 447.568,386.801 449,379.5C451.015,376.588 453.515,374.255 456.5,372.5Z" style="fill:rgb(41,41,41);"/>
        </g>
        <g transform="matrix(1.01373,0,0,1.00009,-258.194,-209.84)">
            <path d="M576.5,372.5C589.727,372.003 594.56,378.003 591,390.5C584,398.5 577,398.5 570,390.5C568.595,386.928 568.262,383.261 569,379.5C571.396,376.933 573.896,374.6 576.5,372.5Z" style="fill:rgb(43,43,43);"/>
        </g>
        <g transform="matrix(1.01373,0,0,1.00009,-258.194,-209.84)">
            <path d="M513.5,357.5C531.412,354.93 542.912,362.264 548,379.5C548.667,397.5 548.667,415.5 548,433.5C544.525,443.311 537.692,449.144 527.5,451C515.429,453.703 505.262,450.536 497,441.5C496,439.5 495,437.5 494,435.5C493.333,415.833 493.333,396.167 494,376.5C497.782,367.216 504.282,360.883 513.5,357.5Z" style="fill:rgb(43,43,43);"/>
        </g>
        <g transform="matrix(1.01373,0,0,1.00009,-258.194,-209.84)">
            <path d="M388.5,384.5C389.434,385.568 389.768,386.901 389.5,388.5C392.167,387.833 394.833,387.167 397.5,386.5C398.2,390.798 398.533,395.131 398.5,399.5C397.504,399.586 396.671,399.252 396,398.5C395.108,395.716 393.942,393.05 392.5,390.5C391.311,389.571 389.978,389.238 388.5,389.5L388.5,384.5Z" style="fill:rgb(171,171,171);"/>
        </g>
        <g transform="matrix(1.01373,0,0,1.00009,-258.194,-209.84)">
            <path d="M648.5,388.5C646.329,392.303 644.329,396.303 642.5,400.5C642.34,395.434 642.84,390.434 644,385.5C645.652,386.399 647.152,387.399 648.5,388.5Z" style="fill:rgb(155,155,155);"/>
        </g>
        <g transform="matrix(1.01373,0,0,1.00009,-258.194,-209.84)">
            <path d="M334.5,414.5C336.722,414.178 338.556,414.845 340,416.5C340.497,419.146 340.664,421.813 340.5,424.5C347.827,423.331 350.827,426.164 349.5,433C346.607,434.149 343.607,434.649 340.5,434.5C340.664,437.187 340.497,439.854 340,442.5C337.333,446.5 334.667,446.5 332,442.5C331.503,439.854 331.336,437.187 331.5,434.5C324.02,435.86 321.353,433.026 323.5,426C326.014,424.748 328.68,424.248 331.5,424.5C331.022,420.662 332.022,417.329 334.5,414.5Z" style="fill:rgb(243,243,243);"/>
        </g>
        <g transform="matrix(1.01373,0,0,1.00009,-258.194,-209.84)">
            <path d="M702.5,414.5C705.044,414.104 707.211,414.771 709,416.5C709.497,419.146 709.664,421.813 709.5,424.5C716.827,423.331 719.827,426.164 718.5,433C715.649,434.289 712.649,434.789 709.5,434.5C709.664,437.187 709.497,439.854 709,442.5C705.852,446.68 703.186,446.347 701,441.5C700.503,439.19 700.337,436.857 700.5,434.5C697.398,434.846 694.565,434.179 692,432.5C691.104,429.975 691.604,427.808 693.5,426C696.095,425.774 698.595,425.274 701,424.5C701.339,421.12 701.839,417.787 702.5,414.5Z" style="fill:rgb(244,244,244);"/>
        </g>
        <g transform="matrix(1.01373,0,0,1.00009,-258.194,-209.84)">
            <path d="M415.5,443.5C415.586,444.496 415.252,445.329 414.5,446C399.408,453.045 384.408,460.379 369.5,468C364.2,471.575 359.367,475.742 355,480.5C332.503,513.49 310.503,546.824 289,580.5C287.864,583.096 287.031,585.763 286.5,588.5C280.097,594.926 275.763,602.593 273.5,611.5C272.366,613.966 272.199,616.633 273,619.5C273.513,618.473 274.013,617.473 274.5,616.5C288.291,600.075 305.958,591.075 327.5,589.5C339.441,591.331 351.441,591.831 363.5,591C366.595,590.286 369.595,589.286 372.5,588C377.577,584.599 382.911,581.599 388.5,579C401.5,578.333 414.5,578.333 427.5,579C432.342,582.694 432.675,586.694 428.5,591C421.842,591.5 415.175,591.666 408.5,591.5C402.158,591.334 395.825,591.5 389.5,592C380.889,598.47 371.222,602.47 360.5,604C346.89,602.567 333.223,601.9 319.5,602C288.373,610.782 272.873,631.282 273,663.5C273.346,665.218 273.846,666.885 274.5,668.5C274.376,669.107 274.043,669.44 273.5,669.5C257.384,649.744 253.551,627.744 262,603.5C266.239,594.016 271.239,585.016 277,576.5C298,544.167 319,511.833 340,479.5C348.375,468.124 358.875,459.29 371.5,453C383.044,447.061 394.711,441.394 406.5,436C407.833,435.333 409.167,435.333 410.5,436C412.389,438.382 414.055,440.882 415.5,443.5Z" style="fill:rgb(249,249,249);"/>
        </g>
        <g transform="matrix(1.01373,0,0,1.00009,-258.194,-209.84)">
            <path d="M767.5,669.5C770.738,644.453 761.738,624.619 740.5,610C734.024,605.953 727.024,603.286 719.5,602C704.846,602.552 690.179,602.886 675.5,603C666.863,600.689 658.863,597.022 651.5,592C645.175,591.5 638.842,591.334 632.5,591.5C626.158,591.666 619.825,591.5 613.5,591C609.269,586.522 609.602,582.522 614.5,579C627.167,578.333 639.833,578.333 652.5,579C660.447,583.807 668.781,587.807 677.5,591C691.525,591.162 705.525,590.829 719.5,590C739.145,593.734 755.312,603.234 768,618.5C767.695,607.218 763.528,597.552 755.5,589.5C734.287,553.421 711.787,518.088 688,483.5C682.38,476.873 675.88,471.373 668.5,467C654.543,460.07 640.543,453.237 626.5,446.5C625.702,446.043 625.369,445.376 625.5,444.5C627.111,440.949 629.444,437.949 632.5,435.5C645.68,442.256 659.013,448.756 672.5,455C683.143,461.076 692.309,468.91 700,478.5C723.582,513.996 746.915,549.662 770,585.5C785.94,609.274 787.607,633.941 775,659.5C772.734,663.042 770.234,666.375 767.5,669.5Z" style="fill:rgb(250,250,250);"/>
        </g>
        <g transform="matrix(1.01373,0,0,1.00009,-258.194,-209.84)">
            <path d="M625.5,444.5C625.369,445.376 625.702,446.043 626.5,446.5C640.543,453.237 654.543,460.07 668.5,467C675.88,471.373 682.38,476.873 688,483.5C711.787,518.088 734.287,553.421 755.5,589.5C752.997,587.167 750.331,585.001 747.5,583C740.033,579.296 732.533,575.796 725,572.5C711.25,549.998 697.25,527.665 683,505.5C676.129,496.962 668.296,489.462 659.5,483C648.075,476.954 636.408,471.454 624.5,466.5C623.336,459.524 623.169,452.524 624,445.5C624.383,444.944 624.883,444.611 625.5,444.5Z" style="fill:rgb(200,200,200);"/>
        </g>
        <g transform="matrix(1.01373,0,0,1.00009,-258.194,-209.84)">
            <path d="M415.5,443.5C416.82,451.01 416.82,458.677 415.5,466.5C400.284,472.44 385.95,479.94 372.5,489C367.633,493.532 363.133,498.366 359,503.5C344.667,526.5 330.333,549.5 316,572.5C309.551,575.321 303.051,578.154 296.5,581C292.958,583.266 289.625,585.766 286.5,588.5C287.031,585.763 287.864,583.096 289,580.5C310.503,546.824 332.503,513.49 355,480.5C359.367,475.742 364.2,471.575 369.5,468C384.408,460.379 399.408,453.045 414.5,446C415.252,445.329 415.586,444.496 415.5,443.5Z" style="fill:rgb(199,199,199);"/>
        </g>
        <g transform="matrix(1.01373,0,0,1.00009,-258.194,-209.84)">
            <path d="M614.5,525.5L439.5,525.5L439.5,524.5C493.834,524.667 548.168,524.5 602.5,524C606.7,517.073 609.533,509.573 611,501.5C612.411,491.467 613.911,481.467 615.5,471.5C616.736,472.246 618.07,472.579 619.5,472.5C619.667,483.505 619.5,494.505 619,505.5C618.326,512.375 616.826,519.042 614.5,525.5Z" style="fill:rgb(139,139,139);"/>
        </g>
        <g transform="matrix(1.01373,0,0,1.00009,-258.194,-209.84)">
            <path d="M275.5,495.5C284.12,498.984 284.454,502.984 276.5,507.5C274.167,505.833 272.167,503.833 270.5,501.5C272.19,499.481 273.856,497.481 275.5,495.5Z" style="fill:rgb(239,239,239);"/>
        </g>
        <g transform="matrix(1.01373,0,0,1.00009,-258.194,-209.84)">
            <path d="M762.5,495.5C765.407,496.734 767.741,498.734 769.5,501.5C765.5,508.167 761.5,508.167 757.5,501.5C759.19,499.481 760.856,497.481 762.5,495.5Z" style="fill:rgb(239,239,239);"/>
        </g>
        <g transform="matrix(1.01373,0,0,1.00009,-258.194,-209.84)">
            <path d="M439.5,524.5L439.5,525.5L427.5,525.5C424.76,519.109 422.926,512.442 422,505.5C421.5,494.505 421.333,483.505 421.5,472.5C422.93,472.579 424.264,472.246 425.5,471.5C427.169,482.844 429.002,494.177 431,505.5C432.786,512.397 435.619,518.73 439.5,524.5Z" style="fill:rgb(151,151,151);"/>
        </g>
        <g transform="matrix(1.01373,0,0,1.00009,-258.194,-209.84)">
            <path d="M427.5,525.5L614.5,525.5C624.85,524.427 633.016,528.093 639,536.5C640.453,547.063 640.953,557.73 640.5,568.5L631.5,568.5C631.824,561.646 631.491,554.979 630.5,548.5C629.428,542.927 626.095,539.427 620.5,538C553.5,537.333 486.5,537.333 419.5,538C415.279,539.387 412.612,542.221 411.5,546.5C410.508,553.648 410.175,560.981 410.5,568.5L401.5,568.5L401.5,539.5C403.649,532.52 408.316,528.02 415.5,526C419.486,525.501 423.486,525.334 427.5,525.5Z" style="fill:rgb(252,252,252);"/>
        </g>
        <g transform="matrix(1.01373,0,0,1.00009,-258.194,-209.84)">
            <path d="M630.5,548.5C631.491,554.979 631.824,561.646 631.5,568.5L640.5,568.5C637.375,569.479 634.042,569.813 630.5,569.5L630.5,548.5Z" style="fill:rgb(184,184,184);"/>
        </g>
        <g transform="matrix(1.01373,0,0,1.00009,-258.194,-209.84)">
            <path d="M401.5,539.5L401.5,568.5L410.5,568.5C410.175,560.981 410.508,553.648 411.5,546.5L411.5,569.5L400.5,569.5C400.173,559.319 400.506,549.319 401.5,539.5Z" style="fill:rgb(195,195,195);"/>
        </g>
        <g transform="matrix(1.01373,0,0,1.00009,-258.194,-209.84)">
            <path d="M514.5,581.5C537.749,581.216 545.582,591.883 538,613.5C529.761,621.758 520.261,623.591 509.5,619C494.984,604.292 496.651,591.792 514.5,581.5Z" style="fill:rgb(250,250,250);"/>
        </g>
        <g transform="matrix(1.01373,0,0,1.00009,-258.194,-209.84)">
            <path d="M632.5,591.5C638.842,591.334 645.175,591.5 651.5,592C658.863,597.022 666.863,600.689 675.5,603C690.179,602.886 704.846,602.552 719.5,602C727.024,603.286 734.024,605.953 740.5,610C761.738,624.619 770.738,644.453 767.5,669.5C747.316,688.259 723.982,693.426 697.5,685C686.265,680.247 676.598,673.413 668.5,664.5C674.842,664.666 681.175,664.5 687.5,664C686.956,663.283 686.289,662.783 685.5,662.5C681.084,661.088 679.084,658.088 679.5,653.5C670.827,653.666 662.16,653.5 653.5,653C650.833,651.667 648.167,650.333 645.5,649C636.167,648.667 626.833,648.333 617.5,648C613.895,644.685 613.561,641.018 616.5,637C621.721,635.768 627.054,635.101 632.5,635C628.695,634.466 625.029,633.466 621.5,632C617.319,627.03 617.986,622.697 623.5,619C626.044,617.908 628.711,617.241 631.5,617C621.994,615.692 612.327,615.026 602.5,615C597.231,610.161 597.231,605.495 602.5,601C612.494,600.5 622.494,600.334 632.5,600.5L632.5,591.5Z" style="fill:rgb(199,199,199);"/>
        </g>
        <g transform="matrix(1.01373,0,0,1.00009,-258.194,-209.84)">
            <path d="M408.5,591.5L408.5,600.5C419.27,600.047 429.937,600.547 440.5,602C444.62,609.34 442.62,613.84 434.5,615.5C426.14,615.169 417.807,615.502 409.5,616.5C409.957,617.298 410.624,617.631 411.5,617.5C419.034,617.53 422.534,621.197 422,628.5C420.891,630.815 419.057,632.315 416.5,633C413.471,633.539 410.471,634.206 407.5,635C412.5,635.333 417.5,635.667 422.5,636C427.568,638.609 428.568,642.276 425.5,647C415.265,648.286 404.932,648.952 394.5,649C392.33,650.586 389.996,651.92 387.5,653C378.506,653.5 369.506,653.666 360.5,653.5C360.801,658.048 358.801,661.215 354.5,663C360.833,663.333 367.167,663.667 373.5,664C353.782,684.173 330.115,691.84 302.5,687C291.146,683.783 281.48,677.949 273.5,669.5C274.043,669.44 274.376,669.107 274.5,668.5C273.846,666.885 273.346,665.218 273,663.5C272.873,631.282 288.373,610.782 319.5,602C333.223,601.9 346.89,602.567 360.5,604C371.222,602.47 380.889,598.47 389.5,592C395.825,591.5 402.158,591.334 408.5,591.5Z" style="fill:rgb(199,199,199);"/>
        </g>
        <g transform="matrix(1.01373,0,0,1.00009,-258.194,-209.84)">
            <path d="M434.5,615.5C426.833,616.167 419.167,616.833 411.5,617.5C410.624,617.631 409.957,617.298 409.5,616.5C417.807,615.502 426.14,615.169 434.5,615.5Z" style="fill:rgb(109,109,109);"/>
        </g>
        <g transform="matrix(1.01373,0,0,1.00009,-258.194,-209.84)">
            <path d="M273.5,611.5C273.216,613.415 273.549,615.081 274.5,616.5C274.013,617.473 273.513,618.473 273,619.5C272.199,616.633 272.366,613.966 273.5,611.5Z" style="fill:rgb(119,119,119);"/>
        </g>
        <g transform="matrix(1.01373,0,0,1.00009,-258.194,-209.84)">
            <path d="M685.5,662.5C686.289,662.783 686.956,663.283 687.5,664C681.175,664.5 674.842,664.666 668.5,664.5C673.592,663.793 679.258,663.126 685.5,662.5Z" style="fill:rgb(126,126,126);"/>
        </g>
        <g transform="matrix(1.01373,0,0,1.00009,-258.194,-209.84)">
            <path d="M389.5,665.5C390.657,674.324 390.824,683.324 390,692.5C384.054,698.446 378.054,704.446 372,710.5C371.168,700.483 371.334,690.483 372.5,680.5C379.102,676.564 384.769,671.564 389.5,665.5Z" style="fill:rgb(197,197,197);"/>
        </g>
        <g transform="matrix(1.01373,0,0,1.00009,-258.194,-209.84)">
            <path d="M651.5,665.5C656.49,671.488 662.157,676.821 668.5,681.5C669.665,691.149 669.832,700.816 669,710.5C663.031,705.533 657.365,700.199 652,694.5C651.5,684.839 651.334,675.172 651.5,665.5Z" style="fill:rgb(200,200,200);"/>
        </g>
        <g transform="matrix(1.01373,0,0,1.00009,-258.194,-209.84)">
            <path d="M388.5,725.5C386.283,724.631 383.95,724.298 381.5,724.5C382.054,720.256 381.054,716.59 378.5,713.5C384.183,707.818 390.183,702.484 396.5,697.5C400.387,697.768 404.387,698.601 408.5,700C401.97,708.686 395.303,717.186 388.5,725.5Z" style="fill:rgb(104,104,104);"/>
        </g>
        <g transform="matrix(1.01373,0,0,1.00009,-258.194,-209.84)">
            <path d="M663.5,713.5C661.584,715.669 660.25,718.335 659.5,721.5C657.481,723.19 655.481,724.856 653.5,726.5C647.886,719.046 642.052,711.712 636,704.5C635.039,702.783 634.372,701.116 634,699.5C635.073,700.28 636.24,700.113 637.5,699C643.671,697.093 648.671,698.76 652.5,704C651.346,704.914 651.513,705.747 653,706.5C653.333,706.167 653.667,705.833 654,705.5C656.772,708.783 659.939,711.45 663.5,713.5Z" style="fill:rgb(102,102,102);"/>
        </g>
        <g transform="matrix(1.01373,0,0,1.00009,-258.194,-209.84)">
            <path d="M452.5,707.5C445.797,725.557 439.13,743.557 432.5,761.5C427.706,762.097 423.373,761.43 419.5,759.5C421.226,754.383 423.226,749.383 425.5,744.5C433.145,732.557 440.312,720.224 447,707.5C448.943,706.193 450.777,706.193 452.5,707.5Z" style="fill:rgb(249,249,249);"/>
        </g>
        <g transform="matrix(1.01373,0,0,1.00009,-258.194,-209.84)">
            <path d="M480.5,723.5C479.518,730.681 479.518,731.681 480.5,726.5L495.5,726.5C495.296,729.518 494.963,732.518 494.5,735.5C488.824,735.334 483.157,735.501 477.5,736C476.584,736.374 475.75,736.874 475,737.5C473.498,745.182 471.998,752.849 470.5,760.5C467.102,760.82 463.768,760.487 460.5,759.5C464.049,741.639 468.382,723.972 473.5,706.5C476.768,705.513 480.102,705.18 483.5,705.5C482.285,711.46 481.285,717.46 480.5,723.5Z" style="fill:rgb(243,243,243);"/>
        </g>
        <g transform="matrix(1.01373,0,0,1.00009,-258.194,-209.84)">
            <path d="M495.5,735.5C496.294,732.198 496.96,728.865 497.5,725.5C498.005,719.131 498.838,712.798 500,706.5C503.394,705.544 506.894,705.211 510.5,705.5C510.259,723.854 509.593,742.187 508.5,760.5L498.5,760.5C498.946,752.827 499.112,745.16 499,737.5C497.887,736.695 496.721,736.028 495.5,735.5Z" style="fill:rgb(248,248,248);"/>
        </g>
        <g transform="matrix(1.01373,0,0,1.00009,-258.194,-209.84)">
            <path d="M546.5,725.5C547.051,728.807 547.384,732.14 547.5,735.5C545.648,736.52 544.315,738.02 543.5,740C544.827,746.787 545.827,753.621 546.5,760.5L534.5,760.5C534.389,742.162 534.055,723.828 533.5,705.5L544.5,705.5C545.167,712.167 545.833,718.833 546.5,725.5Z" style="fill:rgb(249,249,249);"/>
        </g>
        <g transform="matrix(1.01373,0,0,1.00009,-258.194,-209.84)">
            <path d="M563.5,734.5L548.5,734.5L548.5,726.5L562.5,726.5C563.147,725.726 563.48,724.726 563.5,723.5C562.282,717.526 561.282,711.526 560.5,705.5C564.106,705.211 567.606,705.544 571,706.5C575.956,723.988 580.122,741.655 583.5,759.5C580.232,760.487 576.898,760.82 573.5,760.5C572.322,752.775 570.822,745.109 569,737.5C567.417,736.029 565.583,735.029 563.5,734.5Z" style="fill:rgb(242,242,242);"/>
        </g>
        <g transform="matrix(1.01373,0,0,1.00009,-258.194,-209.84)">
            <path d="M617.5,743.5C619.808,749.459 622.142,755.459 624.5,761.5L610.5,761.5C604.156,743.484 597.823,725.484 591.5,707.5C593.795,706.208 595.628,706.874 597,709.5C603.105,721.395 609.938,732.728 617.5,743.5Z" style="fill:rgb(249,249,249);"/>
        </g>
        <g transform="matrix(1.01373,0,0,1.00009,-258.194,-209.84)">
            <path d="M649.5,731.5C650.894,733.708 652.894,735.208 655.5,736C656.823,736.816 657.489,737.983 657.5,739.5C655.396,741.583 655.062,743.917 656.5,746.5C653.67,746.963 651.003,747.629 648.5,748.5C647.207,743.822 644.873,739.655 641.5,736C635.833,735.333 630.167,735.333 624.5,736C619.848,736.481 617.515,738.981 617.5,743.5C609.938,732.728 603.105,721.395 597,709.5C595.628,706.874 593.795,706.208 591.5,707.5C590.957,707.44 590.624,707.107 590.5,706.5C603.154,705.334 615.82,705.167 628.5,706C635.16,714.847 642.16,723.347 649.5,731.5Z" style="fill:rgb(196,196,196);"/>
        </g>
        <g transform="matrix(1.01373,0,0,1.00009,-258.194,-209.84)">
            <path d="M452.5,707.5C450.777,706.193 448.943,706.193 447,707.5C440.312,720.224 433.145,732.557 425.5,744.5C425.456,740.91 423.789,738.41 420.5,737C414.224,735.576 407.891,735.242 401.5,736C400.058,736.377 399.058,737.21 398.5,738.5C397.733,737.828 397.066,736.995 396.5,736C398.34,731.979 399.674,727.812 400.5,723.5C404.616,717.544 408.949,711.711 413.5,706C426.846,705.167 440.179,705.334 453.5,706.5C453.376,707.107 453.043,707.44 452.5,707.5Z" style="fill:rgb(196,196,196);"/>
        </g>
        <g transform="matrix(1.01373,0,0,1.00009,-258.194,-209.84)">
            <path d="M663.5,713.5C673.801,722.133 683.467,731.467 692.5,741.5C690.661,742.752 688.828,742.752 687,741.5C686.79,743.058 686.29,744.391 685.5,745.5C686.106,739.596 683.439,736.096 677.5,735C672.833,734.333 668.167,734.333 663.5,735C661.34,736.332 659.34,737.832 657.5,739.5C657.489,737.983 656.823,736.816 655.5,736C652.894,735.208 650.894,733.708 649.5,731.5C651.543,730.421 652.876,728.754 653.5,726.5C655.481,724.856 657.481,723.19 659.5,721.5C660.25,718.335 661.584,715.669 663.5,713.5Z" style="fill:rgb(152,152,152);"/>
        </g>
        <g transform="matrix(1.01373,0,0,1.00009,-258.194,-209.84)">
            <path d="M480.5,723.5C485.735,725.45 491.402,726.117 497.5,725.5C496.96,728.865 496.294,732.198 495.5,735.5L494.5,735.5C494.963,732.518 495.296,729.518 495.5,726.5L480.5,726.5C479.518,731.681 479.518,730.681 480.5,723.5Z" style="fill:rgb(183,183,183);"/>
        </g>
        <g transform="matrix(1.01373,0,0,1.00009,-258.194,-209.84)">
            <path d="M378.5,713.5C381.054,716.59 382.054,720.256 381.5,724.5C383.95,724.298 386.283,724.631 388.5,725.5L388.5,728.5C386.4,730.498 384.4,732.665 382.5,735C383.252,735.671 383.586,736.504 383.5,737.5C380.228,736.242 376.894,735.075 373.5,734C370.112,733.341 366.779,733.508 363.5,734.5C361.706,733.767 360.039,732.767 358.5,731.5C364.843,725.158 371.509,719.158 378.5,713.5Z" style="fill:rgb(138,138,138);"/>
        </g>
        <g transform="matrix(1.01373,0,0,1.00009,-258.194,-209.84)">
            <path d="M400.5,723.5C399.674,727.812 398.34,731.979 396.5,736C397.066,736.995 397.733,737.828 398.5,738.5C396.816,741.868 395.15,745.201 393.5,748.5C390.721,748.721 388.054,748.388 385.5,747.5C385.848,743.915 385.181,740.582 383.5,737.5C383.586,736.504 383.252,735.671 382.5,735C384.4,732.665 386.4,730.498 388.5,728.5C389.973,729.74 391.64,730.74 393.5,731.5C395.885,728.788 398.218,726.122 400.5,723.5Z" style="fill:rgb(176,176,176);"/>
        </g>
        <g transform="matrix(1.01373,0,0,1.00009,-258.194,-209.84)">
            <path d="M383.5,737.5C385.181,740.582 385.848,743.915 385.5,747.5C384.872,749.662 383.539,751.328 381.5,752.5C378.873,753.092 376.206,753.425 373.5,753.5C367.337,752.616 361.837,750.283 357,746.5C355.762,740.641 357.929,736.641 363.5,734.5C366.779,733.508 370.112,733.341 373.5,734C376.894,735.075 380.228,736.242 383.5,737.5Z" style="fill:rgb(45,45,45);"/>
        </g>
        <g transform="matrix(1.01373,0,0,1.00009,-258.194,-209.84)">
            <path d="M546.5,725.5C552.026,725.179 557.36,725.512 562.5,726.5L548.5,726.5L548.5,734.5L563.5,734.5C558.36,735.488 553.026,735.821 547.5,735.5C547.384,732.14 547.051,728.807 546.5,725.5Z" style="fill:rgb(178,178,178);"/>
        </g>
        <g transform="matrix(1.01373,0,0,1.00009,-258.194,-209.84)">
            <path d="M685.5,745.5C678.634,751.122 670.634,753.789 661.5,753.5C659.11,751.733 657.443,749.4 656.5,746.5C655.062,743.917 655.396,741.583 657.5,739.5C659.34,737.832 661.34,736.332 663.5,735C668.167,734.333 672.833,734.333 677.5,735C683.439,736.096 686.106,739.596 685.5,745.5Z" style="fill:rgb(42,42,42);"/>
        </g>
        <g transform="matrix(1.01373,0,0,1.00009,-258.194,-209.84)">
            <path d="M648.5,748.5C650.439,753.09 652.773,757.423 655.5,761.5L655.5,762.5C655.131,764.441 654.464,766.275 653.5,768C644.833,768.667 636.167,768.667 627.5,768C626.594,765.779 625.594,763.612 624.5,761.5C622.142,755.459 619.808,749.459 617.5,743.5C617.515,738.981 619.848,736.481 624.5,736C630.167,735.333 635.833,735.333 641.5,736C644.873,739.655 647.207,743.822 648.5,748.5Z" style="fill:rgb(42,42,42);"/>
        </g>
        <g transform="matrix(1.01373,0,0,1.00009,-258.194,-209.84)">
            <path d="M425.5,744.5C423.226,749.383 421.226,754.383 419.5,759.5C418.213,762.075 416.879,764.741 415.5,767.5C406.853,768.665 398.186,768.832 389.5,768C387.984,766.103 387.317,763.936 387.5,761.5C390.257,757.584 392.257,753.25 393.5,748.5C395.15,745.201 396.816,741.868 398.5,738.5C399.058,737.21 400.058,736.377 401.5,736C407.891,735.242 414.224,735.576 420.5,737C423.789,738.41 425.456,740.91 425.5,744.5Z" style="fill:rgb(42,42,42);"/>
        </g>
        <g transform="matrix(1.01373,0,0,1.00009,-258.194,-209.84)">
            <path d="M692.5,741.5C705.446,752.609 716.779,765.109 726.5,779C672.168,779.5 617.834,779.667 563.5,779.5L563.5,778.5C607.168,778.667 650.835,778.5 694.5,778C690.5,777.333 690.5,776.667 694.5,776C691.529,774.914 689.863,772.748 689.5,769.5C688.914,769.709 688.414,770.043 688,770.5C686.951,768.893 685.451,768.227 683.5,768.5C685.667,767.731 687.834,766.731 690,765.5C690.863,763.251 690.363,761.418 688.5,760C683.167,759.333 677.833,759.333 672.5,760C668.717,760.609 667.05,762.776 667.5,766.5C666.566,765.432 666.232,764.099 666.5,762.5L655.5,762.5L655.5,761.5C659.226,761.823 662.893,761.489 666.5,760.5C664.395,758.408 662.728,756.075 661.5,753.5C670.634,753.789 678.634,751.122 685.5,745.5C686.29,744.391 686.79,743.058 687,741.5C688.828,742.752 690.661,742.752 692.5,741.5Z" style="fill:rgb(169,169,169);"/>
        </g>
        <g transform="matrix(1.01373,0,0,1.00009,-258.194,-209.84)">
            <path d="M656.5,746.5C657.443,749.4 659.11,751.733 661.5,753.5C662.728,756.075 664.395,758.408 666.5,760.5C662.893,761.489 659.226,761.823 655.5,761.5C652.773,757.423 650.439,753.09 648.5,748.5C651.003,747.629 653.67,746.963 656.5,746.5Z" style="fill:rgb(247,247,247);"/>
        </g>
        <g transform="matrix(1.01373,0,0,1.00009,-258.194,-209.84)">
            <path d="M385.5,747.5C388.054,748.388 390.721,748.721 393.5,748.5C392.257,753.25 390.257,757.584 387.5,761.5C384.881,761.768 382.381,761.435 380,760.5C380.73,757.979 381.23,755.313 381.5,752.5C383.539,751.328 384.872,749.662 385.5,747.5Z" style="fill:rgb(241,241,241);"/>
        </g>
        <g transform="matrix(1.01373,0,0,1.00009,-258.194,-209.84)">
            <path d="M358.5,731.5C360.039,732.767 361.706,733.767 363.5,734.5C357.929,736.641 355.762,740.641 357,746.5C361.837,750.283 367.337,752.616 373.5,753.5C373.063,755.074 372.063,756.241 370.5,757C371.448,757.483 372.448,757.649 373.5,757.5C373.567,758.959 373.234,760.292 372.5,761.5C366.346,759.522 360.013,759.022 353.5,760C351.646,763.726 352.646,766.392 356.5,768C362.157,768.499 367.824,768.666 373.5,768.5C370.359,769.321 367.025,769.821 363.5,770C362.833,770.333 362.167,770.667 361.5,771C362.793,771.49 364.127,771.657 365.5,771.5C364.965,774.238 365.965,776.072 368.5,777C367.167,777.333 365.833,777.667 364.5,778C430.832,778.5 497.166,778.667 563.5,778.5L563.5,779.5C480.833,779.667 398.166,779.5 315.5,779C319.302,773.231 323.469,767.731 328,762.5C337.672,751.661 347.839,741.328 358.5,731.5Z" style="fill:rgb(162,162,162);"/>
        </g>
        <g transform="matrix(1.01373,0,0,1.00009,-258.194,-209.84)">
            <path d="M372.5,761.5C374.604,763.583 374.938,765.917 373.5,768.5C367.824,768.666 362.157,768.499 356.5,768C352.646,766.392 351.646,763.726 353.5,760C360.013,759.022 366.346,759.522 372.5,761.5Z" style="fill:rgb(42,42,42);"/>
        </g>
        <g transform="matrix(1.01373,0,0,1.00009,-258.194,-209.84)">
            <path d="M683.5,768.5C678.489,768.666 673.489,768.499 668.5,768C667.944,767.617 667.611,767.117 667.5,766.5C667.05,762.776 668.717,760.609 672.5,760C677.833,759.333 683.167,759.333 688.5,760C690.363,761.418 690.863,763.251 690,765.5C687.834,766.731 685.667,767.731 683.5,768.5Z" style="fill:rgb(43,43,43);"/>
        </g>
        <g transform="matrix(1.01373,0,0,1.00009,-258.194,-209.84)">
            <path d="M381.5,752.5C381.23,755.313 380.73,757.979 380,760.5C382.381,761.435 384.881,761.768 387.5,761.5C387.317,763.936 387.984,766.103 389.5,768C398.186,768.832 406.853,768.665 415.5,767.5C416.879,764.741 418.213,762.075 419.5,759.5C423.373,761.43 427.706,762.097 432.5,761.5C433.276,765.443 435.609,767.943 439.5,769C493.167,769.667 546.833,769.667 600.5,769C605.998,769.33 609.332,766.83 610.5,761.5L624.5,761.5C625.594,763.612 626.594,765.779 627.5,768C636.167,768.667 644.833,768.667 653.5,768C654.464,766.275 655.131,764.441 655.5,762.5L666.5,762.5C666.232,764.099 666.566,765.432 667.5,766.5C667.611,767.117 667.944,767.617 668.5,768C673.489,768.499 678.489,768.666 683.5,768.5C685.451,768.227 686.951,768.893 688,770.5C688.414,770.043 688.914,769.709 689.5,769.5C689.863,772.748 691.529,774.914 694.5,776C690.5,776.667 690.5,777.333 694.5,778C650.835,778.5 607.168,778.667 563.5,778.5C497.166,778.667 430.832,778.5 364.5,778C365.833,777.667 367.167,777.333 368.5,777C365.965,776.072 364.965,774.238 365.5,771.5C364.127,771.657 362.793,771.49 361.5,771C362.167,770.667 362.833,770.333 363.5,770C367.025,769.821 370.359,769.321 373.5,768.5C374.938,765.917 374.604,763.583 372.5,761.5C373.234,760.292 373.567,758.959 373.5,757.5C372.448,757.649 371.448,757.483 370.5,757C372.063,756.241 373.063,755.074 373.5,753.5C376.206,753.425 378.873,753.092 381.5,752.5Z" style="fill:rgb(185,185,185);"/>
        </g>
    </g>
</svg>
